<svg width="22" height="22" viewBox="0 0 22 22" fill="none" xmlns="http://www.w3.org/2000/svg">
<g clip-path="url(#clip0_1310_9391)">
<path d="M12.8807 15.2556C12.8807 15.0588 12.8921 14.8658 12.917 14.6767H7.09219V6.02059C7.09219 5.1036 7.92703 4.13694 12.0134 4.13694C16.0978 4.13694 16.9326 5.1036 16.9326 6.02059V10.6611C17.1217 10.6382 17.3147 10.6248 17.5115 10.6248C17.7063 10.6248 17.9012 10.6362 18.0903 10.6611V5.55827C18.0903 5.23924 17.9566 4.42541 16.7129 3.78925C15.6603 3.25243 14.0804 2.97925 12.0134 2.97925C9.94631 2.97925 8.36642 3.25243 7.31379 3.78925C6.06822 4.42541 5.93449 5.23733 5.93449 5.55827V7.73054H3.86745C3.69742 7.73054 3.53695 7.80505 3.42806 7.93304L1.44316 10.2484C1.35337 10.3535 1.3037 10.4872 1.3037 10.6248V14.6767C0.984666 14.6767 0.724854 14.9365 0.724854 15.2556C0.724854 15.5746 0.984666 15.8344 1.3037 15.8344H2.53591C2.79381 16.8316 3.70124 17.571 4.7787 17.571C5.85616 17.571 6.7636 16.8316 7.01959 15.8344H12.9189C12.894 15.6453 12.8807 15.4523 12.8807 15.2556ZM5.77975 15.8344C5.57916 16.1802 5.20472 16.4133 4.77679 16.4133C4.34887 16.4133 3.97443 16.1802 3.77384 15.8344C3.6745 15.6644 3.6191 15.4657 3.6191 15.2556C3.6191 15.0454 3.67641 14.8467 3.77575 14.6767C3.97634 14.3309 4.35078 14.0979 4.77679 14.0979C5.20472 14.0979 5.57916 14.3309 5.77784 14.6767C5.87718 14.8467 5.93449 15.0454 5.93449 15.2556C5.93449 15.4676 5.87718 15.6644 5.77975 15.8344ZM5.93449 11.2036H2.4614V10.8387L4.13299 8.88824H5.93449V11.2036Z" fill="#0070F4"/>
<path d="M17.5117 11.4939C15.437 11.4939 13.7501 13.1827 13.7501 15.2574C13.7501 17.332 15.437 19.0208 17.5117 19.0208C19.5864 19.0208 21.2752 17.334 21.2752 15.2574C21.2752 13.1808 19.5864 11.4939 17.5117 11.4939ZM18.0905 16.5583H15.7751C15.5344 16.5583 15.3415 16.3635 15.3415 16.1247C15.3415 15.884 15.5363 15.691 15.7751 15.691H18.0905C18.3293 15.691 18.5242 15.8859 18.5242 16.1247C18.5242 16.3635 18.3312 16.5583 18.0905 16.5583ZM19.2482 14.8218H15.7751C15.5344 14.8218 15.3415 14.6269 15.3415 14.3881C15.3415 14.1474 15.5363 13.9545 15.7751 13.9545H19.2482C19.487 13.9545 19.6819 14.1493 19.6819 14.3881C19.6819 14.6269 19.4889 14.8218 19.2482 14.8218Z" fill="#00B63E"/>
<path d="M18.5241 16.1248C18.5241 16.3655 18.3293 16.5585 18.0905 16.5585H15.7751C15.5363 16.5585 15.3414 16.3636 15.3414 16.1248C15.3414 15.886 15.5363 15.6912 15.7751 15.6912H18.0905C18.3312 15.6912 18.5241 15.8841 18.5241 16.1248Z" fill="white"/>
<path d="M19.6818 14.3882C19.6818 14.629 19.487 14.8219 19.2482 14.8219H15.7751C15.5363 14.8219 15.3414 14.627 15.3414 14.3882C15.3414 14.1494 15.5363 13.9546 15.7751 13.9546H19.2482C19.4889 13.9546 19.6818 14.1475 19.6818 14.3882Z" fill="white"/>
</g>
<defs>
<clipPath id="clip0_1310_9391">
<rect width="20.5503" height="16.0417" fill="white" transform="translate(0.724854 2.97925)"/>
</clipPath>
</defs>
</svg>
